<svg width="500" height="386" viewBox="0 0 500 386" fill="none" xmlns="http://www.w3.org/2000/svg">
<g clip-path="url(#clip0_11522_4)">
<path d="M479.234 337.743C477.259 321.776 467.325 306.049 452.124 300.907C458.109 317.351 458.109 335.351 452.124 351.735C449.791 358.074 446.499 364.831 448.713 371.23C450.09 375.176 453.441 378.226 457.151 380.14C460.922 382.053 465.051 382.95 469.18 383.847L469.958 384.505C476.541 369.735 481.269 353.649 479.234 337.743Z" fill="#AABCC5"/>
<mask id="path-2-inside-1_11522_4" fill="white">
<path d="M452.005 301.146C460.862 311.072 466.367 323.51 467.744 336.786C468.103 339.656 467.983 342.526 467.445 345.337C466.846 348.088 465.47 350.539 463.555 352.573C461.819 354.486 459.785 356.28 458.528 358.612C457.271 361.004 457.092 363.874 458.049 366.446C459.186 369.615 461.34 372.187 463.555 374.638C466.008 377.389 468.642 380.14 469.659 383.787C469.779 384.206 470.437 384.027 470.317 383.548C468.462 377.269 462.358 373.681 459.485 368.001C458.109 365.369 457.57 362.26 458.827 359.509C459.964 357.057 461.999 355.263 463.794 353.29C465.709 351.317 467.086 348.925 467.864 346.354C468.582 343.603 468.761 340.732 468.522 337.862C468.043 331.464 466.487 325.125 464.034 319.205C461.281 312.388 457.331 306.109 452.424 300.667C452.184 300.309 451.706 300.847 452.005 301.146Z"/>
</mask>
<path d="M452.005 301.146C460.862 311.072 466.367 323.51 467.744 336.786C468.103 339.656 467.983 342.526 467.445 345.337C466.846 348.088 465.47 350.539 463.555 352.573C461.819 354.486 459.785 356.28 458.528 358.612C457.271 361.004 457.092 363.874 458.049 366.446C459.186 369.615 461.34 372.187 463.555 374.638C466.008 377.389 468.642 380.14 469.659 383.787C469.779 384.206 470.437 384.027 470.317 383.548C468.462 377.269 462.358 373.681 459.485 368.001C458.109 365.369 457.57 362.26 458.827 359.509C459.964 357.057 461.999 355.263 463.794 353.29C465.709 351.317 467.086 348.925 467.864 346.354C468.582 343.603 468.761 340.732 468.522 337.862C468.043 331.464 466.487 325.125 464.034 319.205C461.281 312.388 457.331 306.109 452.424 300.667C452.184 300.309 451.706 300.847 452.005 301.146Z" fill="white"/>
<path d="M452.005 301.146L452.751 300.48L452.732 300.459L452.712 300.438L452.005 301.146ZM467.744 336.786L466.749 336.889L466.75 336.899L466.752 336.91L467.744 336.786ZM467.445 345.337L468.422 345.55L468.424 345.537L468.427 345.525L467.445 345.337ZM463.555 352.573L462.827 351.887L462.82 351.894L462.814 351.901L463.555 352.573ZM458.528 358.612L457.647 358.138L457.643 358.147L458.528 358.612ZM458.049 366.446L458.99 366.108L458.986 366.097L458.049 366.446ZM463.555 374.638L464.301 373.973L464.297 373.968L463.555 374.638ZM469.659 383.787L468.696 384.056L468.697 384.062L469.659 383.787ZM470.317 383.548L471.287 383.306L471.282 383.285L471.276 383.265L470.317 383.548ZM459.485 368.001L460.378 367.549L460.371 367.537L459.485 368.001ZM458.827 359.509L457.92 359.088L457.917 359.094L458.827 359.509ZM463.794 353.29L463.076 352.594L463.065 352.605L463.054 352.617L463.794 353.29ZM467.864 346.354L468.821 346.643L468.826 346.625L468.831 346.606L467.864 346.354ZM468.522 337.862L467.525 337.937L467.525 337.945L468.522 337.862ZM464.034 319.205L463.106 319.579L463.11 319.588L464.034 319.205ZM452.424 300.667L451.592 301.222L451.632 301.283L451.681 301.337L452.424 300.667ZM451.259 301.812C459.976 311.581 465.394 323.823 466.749 336.889L468.739 336.683C467.34 323.198 461.748 310.563 452.751 300.48L451.259 301.812ZM466.752 336.91C467.097 339.671 466.982 342.435 466.462 345.149L468.427 345.525C468.984 342.617 469.109 339.642 468.736 336.662L466.752 336.91ZM466.467 345.124C465.911 347.68 464.63 349.972 462.827 351.887L464.283 353.258C466.309 351.106 467.781 348.495 468.422 345.55L466.467 345.124ZM462.814 351.901C461.182 353.7 458.981 355.663 457.648 358.138L459.408 359.087C460.588 356.897 462.456 355.272 464.295 353.244L462.814 351.901ZM457.643 358.147C456.252 360.794 456.056 363.96 457.112 366.795L458.986 366.097C458.127 363.789 458.29 361.215 459.413 359.077L457.643 358.147ZM457.108 366.784C458.318 370.156 460.597 372.855 462.813 375.308L464.297 373.968C462.084 371.518 460.054 369.074 458.99 366.108L457.108 366.784ZM462.808 375.304C465.316 378.115 467.754 380.68 468.696 384.056L470.622 383.519C469.529 379.599 466.701 376.663 464.301 373.973L462.808 375.304ZM468.697 384.062C468.806 384.441 469.065 384.746 469.418 384.906C469.747 385.054 470.094 385.048 470.381 384.957C470.67 384.865 470.953 384.669 471.138 384.363C471.332 384.041 471.377 383.664 471.287 383.306L469.347 383.791C469.317 383.672 469.325 383.497 469.425 383.33C469.516 383.179 469.65 383.091 469.775 383.051C469.897 383.012 470.064 383.003 470.24 383.082C470.44 383.172 470.572 383.343 470.62 383.513L468.697 384.062ZM471.276 383.265C470.281 379.895 468.154 377.285 466.032 374.887C463.867 372.442 461.74 370.244 460.378 367.549L458.593 368.452C460.103 371.438 462.465 373.875 464.534 376.213C466.646 378.599 468.499 380.923 469.358 383.832L471.276 383.265ZM460.371 367.537C459.082 365.072 458.651 362.3 459.737 359.925L457.917 359.094C456.489 362.22 457.136 365.667 458.599 368.464L460.371 367.537ZM459.734 359.93C460.786 357.662 462.636 356.049 464.534 353.963L463.054 352.617C461.362 354.478 459.142 356.453 457.92 359.088L459.734 359.93ZM464.512 353.987C466.541 351.895 467.998 349.362 468.821 346.643L466.906 346.064C466.173 348.487 464.877 350.739 463.076 352.594L464.512 353.987ZM468.831 346.606C469.582 343.73 469.766 340.745 469.518 337.779L467.525 337.945C467.757 340.72 467.581 343.475 466.896 346.101L468.831 346.606ZM469.519 337.787C469.032 331.278 467.45 324.836 464.957 318.822L463.11 319.588C465.524 325.414 467.054 331.649 467.525 337.937L469.519 337.787ZM464.961 318.83C462.164 311.903 458.151 305.525 453.166 299.998L451.681 301.337C456.511 306.693 460.398 312.872 463.106 319.579L464.961 318.83ZM453.256 300.112C453.027 299.77 452.632 299.52 452.152 299.551C451.741 299.577 451.439 299.799 451.263 299.998C450.937 300.367 450.645 301.201 451.298 301.853L452.712 300.438C452.859 300.585 452.921 300.789 452.908 300.97C452.896 301.124 452.833 301.241 452.762 301.322C452.698 301.394 452.542 301.53 452.278 301.547C451.946 301.568 451.7 301.385 451.592 301.222L453.256 300.112Z" fill="#AABCC5" mask="url(#path-2-inside-1_11522_4)"/>
<mask id="path-4-inside-2_11522_4" fill="white">
<path d="M467.564 332.48C472.113 331.404 475.165 327.158 474.806 322.554C474.746 322.075 474.087 322.135 474.087 322.613C474.446 326.919 471.574 330.866 467.325 331.882C466.906 331.942 467.145 332.6 467.564 332.48Z"/>
</mask>
<path d="M467.564 332.48C472.113 331.404 475.165 327.158 474.806 322.554C474.746 322.075 474.087 322.135 474.087 322.613C474.446 326.919 471.574 330.866 467.325 331.882C466.906 331.942 467.145 332.6 467.564 332.48Z" fill="white"/>
<path d="M467.564 332.48L467.334 331.507L467.312 331.512L467.29 331.519L467.564 332.48ZM474.806 322.554L475.803 322.476L475.801 322.453L475.798 322.43L474.806 322.554ZM474.087 322.613H473.087V322.655L473.091 322.697L474.087 322.613ZM467.325 331.882L467.466 332.872L467.512 332.866L467.558 332.855L467.325 331.882ZM467.795 333.453C472.826 332.263 476.2 327.568 475.803 322.476L473.809 322.631C474.13 326.748 471.399 330.545 467.334 331.507L467.795 333.453ZM475.798 322.43C475.753 322.07 475.579 321.734 475.28 321.503C474.992 321.281 474.65 321.201 474.337 321.229C473.688 321.285 473.087 321.817 473.087 322.613H475.087C475.087 322.737 475.039 322.895 474.913 323.027C474.797 323.148 474.651 323.209 474.511 323.221C474.37 323.233 474.203 323.199 474.057 323.085C473.898 322.962 473.828 322.798 473.813 322.678L475.798 322.43ZM473.091 322.697C473.408 326.504 470.867 330.007 467.092 330.91L467.558 332.855C472.281 331.725 475.485 327.334 475.084 322.53L473.091 322.697ZM467.184 330.892C466.779 330.95 466.396 331.194 466.211 331.616C466.049 331.985 466.099 332.35 466.196 332.605C466.384 333.096 466.99 333.684 467.839 333.442L467.29 331.519C467.466 331.468 467.66 331.499 467.813 331.593C467.946 331.674 468.024 331.786 468.065 331.892C468.102 331.99 468.144 332.187 468.042 332.419C467.917 332.705 467.662 332.844 467.466 332.872L467.184 330.892Z" fill="#AABCC5" mask="url(#path-4-inside-2_11522_4)"/>
<mask id="path-6-inside-3_11522_4" fill="white">
<path d="M464.572 351.735C460.622 349.403 457.69 345.636 456.373 341.211C456.254 340.792 455.595 340.972 455.715 341.45C457.092 346.055 460.144 349.941 464.273 352.393C464.632 352.573 464.931 351.975 464.572 351.735Z"/>
</mask>
<path d="M464.572 351.735C460.622 349.403 457.69 345.636 456.373 341.211C456.254 340.792 455.595 340.972 455.715 341.45C457.092 346.055 460.144 349.941 464.273 352.393C464.632 352.573 464.931 351.975 464.572 351.735Z" fill="white"/>
<path d="M464.572 351.735L465.127 350.903L465.104 350.888L465.081 350.874L464.572 351.735ZM456.373 341.211L455.412 341.486L455.415 341.496L456.373 341.211ZM455.715 341.45L454.745 341.693L454.751 341.715L454.757 341.736L455.715 341.45ZM464.273 352.393L463.762 353.253L463.794 353.272L463.826 353.288L464.273 352.393ZM465.081 350.874C461.35 348.672 458.577 345.111 457.332 340.926L455.415 341.496C456.803 346.161 459.895 350.135 464.064 352.596L465.081 350.874ZM457.335 340.936C457.227 340.557 456.967 340.252 456.614 340.093C456.285 339.944 455.938 339.95 455.652 340.041C455.362 340.133 455.079 340.329 454.894 340.636C454.7 340.958 454.655 341.334 454.745 341.693L456.685 341.207C456.715 341.326 456.708 341.501 456.607 341.668C456.516 341.819 456.382 341.907 456.258 341.947C456.136 341.986 455.968 341.995 455.792 341.916C455.593 341.826 455.46 341.655 455.412 341.486L457.335 340.936ZM454.757 341.736C456.206 346.584 459.419 350.674 463.762 353.253L464.783 351.533C460.868 349.209 457.977 345.526 456.673 341.164L454.757 341.736ZM463.826 353.288C464.193 353.471 464.602 353.468 464.95 353.303C465.268 353.153 465.477 352.897 465.595 352.651C465.822 352.175 465.829 351.371 465.127 350.903L464.018 352.568C463.876 352.473 463.778 352.32 463.746 352.154C463.717 352.008 463.745 351.883 463.789 351.791C463.831 351.702 463.921 351.578 464.093 351.496C464.295 351.4 464.532 351.405 464.72 351.499L463.826 353.288Z" fill="#AABCC5" mask="url(#path-6-inside-3_11522_4)"/>
<mask id="path-8-inside-4_11522_4" fill="white">
<path d="M460.622 313.046C459.007 313.823 457.092 313.703 455.536 312.806C455.117 312.567 454.817 313.225 455.236 313.464C456.972 314.481 459.066 314.6 460.862 313.763C461.041 313.703 461.161 313.524 461.101 313.345C461.041 313.105 460.802 312.986 460.622 313.046Z"/>
</mask>
<path d="M460.622 313.046C459.007 313.823 457.092 313.703 455.536 312.806C455.117 312.567 454.817 313.225 455.236 313.464C456.972 314.481 459.066 314.6 460.862 313.763C461.041 313.703 461.161 313.524 461.101 313.345C461.041 313.105 460.802 312.986 460.622 313.046Z" fill="white"/>
<path d="M460.622 313.046L460.306 312.097L460.246 312.117L460.189 312.145L460.622 313.046ZM455.536 312.806L456.035 311.94L456.031 311.938L455.536 312.806ZM455.236 313.464L455.742 312.601L455.732 312.596L455.236 313.464ZM460.862 313.763L460.546 312.815L460.491 312.833L460.439 312.857L460.862 313.763ZM461.101 313.345L460.131 313.587L460.14 313.625L460.153 313.661L461.101 313.345ZM460.189 312.145C458.889 312.77 457.323 312.683 456.035 311.94L455.036 313.673C456.86 314.724 459.124 314.876 461.056 313.947L460.189 312.145ZM456.031 311.938C455.692 311.744 455.278 311.69 454.886 311.845C454.523 311.988 454.286 312.268 454.162 312.542C453.914 313.087 454.002 313.911 454.741 314.333L455.732 312.596C455.86 312.669 455.97 312.803 456.014 312.97C456.053 313.119 456.033 313.258 455.982 313.37C455.932 313.479 455.823 313.625 455.621 313.705C455.389 313.796 455.17 313.749 455.04 313.675L456.031 311.938ZM454.731 314.327C456.74 315.504 459.181 315.65 461.284 314.67L460.439 312.857C458.952 313.551 457.204 313.458 455.742 312.601L454.731 314.327ZM461.178 314.712C461.738 314.525 462.329 313.864 462.05 313.028L460.153 313.661C460.081 313.446 460.124 313.233 460.214 313.084C460.298 312.945 460.42 312.856 460.546 312.815L461.178 314.712ZM462.071 313.102C461.882 312.347 461.086 311.837 460.306 312.097L460.938 313.994C460.714 314.069 460.522 314.016 460.403 313.947C460.272 313.871 460.17 313.743 460.131 313.587L462.071 313.102Z" fill="#AABCC5" mask="url(#path-8-inside-4_11522_4)"/>
<path d="M405.745 329.371C405.984 329.55 406.224 329.67 406.463 329.849C409.695 331.942 412.687 334.334 415.5 336.905C415.739 337.085 415.919 337.324 416.158 337.503C422.92 343.842 428.366 351.377 432.376 359.689C433.932 362.978 435.308 366.446 436.326 369.974C437.822 374.818 439.019 380.2 441.891 384.206C442.19 384.625 442.49 385.043 442.849 385.402H469.06C469.12 385.402 469.18 385.342 469.24 385.342L470.317 385.402C470.257 385.223 470.257 385.043 470.197 384.864C470.197 384.744 470.138 384.625 470.138 384.565C470.138 384.505 470.078 384.445 470.078 384.385V384.326C470.078 384.266 470.018 384.206 470.018 384.146C469.779 383.07 469.479 381.993 469.18 380.917C467.026 372.784 464.153 364.712 460.203 357.356C460.084 357.117 459.964 356.878 459.844 356.699C458.049 353.41 455.955 350.24 453.621 347.25C452.364 345.636 450.987 344.081 449.551 342.586C445.841 338.759 441.532 335.53 436.804 333.078C427.409 328.115 416.517 326.201 406.463 329.251C406.224 329.191 405.984 329.251 405.745 329.371Z" fill="#AABCC5"/>
<mask id="path-11-inside-5_11522_4" fill="white">
<path d="M405.805 329.67C418.851 332.241 430.76 338.879 439.856 348.626C441.831 350.659 443.507 353.051 444.764 355.622C445.901 358.194 446.32 361.004 446.02 363.755C445.781 366.326 445.242 368.957 445.601 371.589C446.02 374.279 447.636 376.671 449.91 378.107C452.723 379.96 456.014 380.738 459.246 381.336C462.837 382.053 466.607 382.711 469.659 384.924C470.018 385.223 470.437 384.625 470.078 384.326C464.811 380.379 457.81 381.216 452.065 378.465C449.372 377.15 447.098 375.057 446.439 372.067C445.841 369.436 446.439 366.745 446.679 364.114C447.038 361.423 446.679 358.672 445.721 356.101C444.584 353.47 443.028 351.018 441.113 348.925C436.864 344.081 431.837 340.015 426.272 336.726C419.928 332.959 413.046 330.328 405.805 328.892C405.386 328.892 405.386 329.61 405.805 329.67Z"/>
</mask>
<path d="M405.805 329.67C418.851 332.241 430.76 338.879 439.856 348.626C441.831 350.659 443.507 353.051 444.764 355.622C445.901 358.194 446.32 361.004 446.02 363.755C445.781 366.326 445.242 368.957 445.601 371.589C446.02 374.279 447.636 376.671 449.91 378.107C452.723 379.96 456.014 380.738 459.246 381.336C462.837 382.053 466.607 382.711 469.659 384.924C470.018 385.223 470.437 384.625 470.078 384.326C464.811 380.379 457.81 381.216 452.065 378.465C449.372 377.15 447.098 375.057 446.439 372.067C445.841 369.436 446.439 366.745 446.679 364.114C447.038 361.423 446.679 358.672 445.721 356.101C444.584 353.47 443.028 351.018 441.113 348.925C436.864 344.081 431.837 340.015 426.272 336.726C419.928 332.959 413.046 330.328 405.805 328.892C405.386 328.892 405.386 329.61 405.805 329.67Z" fill="white"/>
<path d="M405.805 329.67L405.998 328.689L405.972 328.683L405.946 328.68L405.805 329.67ZM439.856 348.626L439.125 349.308L439.132 349.315L439.139 349.323L439.856 348.626ZM444.764 355.622L445.678 355.218L445.67 355.2L445.662 355.183L444.764 355.622ZM446.02 363.755L445.026 363.647L445.025 363.654L445.025 363.662L446.02 363.755ZM445.601 371.589L444.611 371.724L444.612 371.733L444.613 371.742L445.601 371.589ZM449.91 378.107L450.461 377.272L450.452 377.266L450.444 377.261L449.91 378.107ZM459.246 381.336L459.442 380.355L459.435 380.354L459.428 380.352L459.246 381.336ZM469.659 384.924L470.299 384.155L470.273 384.134L470.246 384.114L469.659 384.924ZM470.078 384.326L470.718 383.557L470.698 383.541L470.677 383.525L470.078 384.326ZM452.065 378.465L451.626 379.364L451.633 379.367L452.065 378.465ZM446.439 372.067L447.416 371.852L447.414 371.845L446.439 372.067ZM446.679 364.114L445.687 363.981L445.685 364.002L445.683 364.023L446.679 364.114ZM445.721 356.101L446.658 355.752L446.649 355.728L446.639 355.704L445.721 356.101ZM441.113 348.925L440.361 349.584L440.368 349.592L440.375 349.6L441.113 348.925ZM426.272 336.726L425.761 337.586L425.763 337.587L426.272 336.726ZM405.805 328.892L405.999 327.911L405.903 327.892H405.805L405.805 328.892ZM405.611 330.651C418.45 333.181 430.171 339.714 439.125 349.308L440.587 347.944C431.349 338.044 419.252 331.301 405.998 328.689L405.611 330.651ZM439.139 349.323C441.039 351.279 442.654 353.584 443.865 356.061L445.662 355.183C444.36 352.518 442.623 350.039 440.574 347.929L439.139 349.323ZM443.849 356.027C444.914 358.435 445.307 361.068 445.026 363.647L447.014 363.863C447.332 360.94 446.888 357.953 445.678 355.218L443.849 356.027ZM445.025 363.662C444.799 366.085 444.231 368.941 444.611 371.724L446.592 371.453C446.254 368.974 446.763 366.567 447.016 363.848L445.025 363.662ZM444.613 371.742C445.078 374.727 446.865 377.367 449.377 378.952L450.444 377.261C448.407 375.975 446.963 373.832 446.59 371.435L444.613 371.742ZM449.36 378.942C452.354 380.915 455.821 381.719 459.064 382.319L459.428 380.352C456.208 379.757 453.092 379.006 450.461 377.272L449.36 378.942ZM459.05 382.316C462.707 383.047 466.233 383.675 469.072 385.733L470.246 384.114C466.981 381.747 462.967 381.059 459.442 380.355L459.05 382.316ZM469.019 385.692C469.329 385.95 469.735 386.065 470.143 385.975C470.516 385.892 470.79 385.661 470.957 385.423C471.281 384.959 471.394 384.12 470.718 383.557L469.438 385.094C469.311 384.988 469.227 384.823 469.216 384.647C469.207 384.493 469.255 384.366 469.319 384.275C469.381 384.187 469.504 384.068 469.71 384.022C469.95 383.969 470.168 384.047 470.299 384.155L469.019 385.692ZM470.677 383.525C467.85 381.407 464.586 380.597 461.448 379.967C458.246 379.324 455.225 378.87 452.496 377.563L451.633 379.367C454.649 380.811 458.001 381.314 461.054 381.927C464.169 382.553 467.039 383.298 469.478 385.126L470.677 383.525ZM452.504 377.567C449.965 376.327 447.984 374.435 447.416 371.852L445.463 372.282C446.211 375.679 448.778 377.973 451.626 379.364L452.504 377.567ZM447.414 371.845C447.147 370.67 447.141 369.453 447.242 368.169C447.292 367.527 447.368 366.881 447.449 366.217C447.529 365.559 447.613 364.88 447.675 364.204L445.683 364.023C445.625 364.663 445.544 365.307 445.463 365.976C445.383 366.639 445.302 367.323 445.248 368.012C445.139 369.389 445.133 370.833 445.464 372.289L447.414 371.845ZM447.67 364.246C448.052 361.38 447.668 358.464 446.658 355.752L444.784 356.45C445.689 358.88 446.023 361.466 445.687 363.981L447.67 364.246ZM446.639 355.704C445.461 352.977 443.845 350.43 441.851 348.25L440.375 349.6C442.211 351.606 443.708 353.962 444.803 356.497L446.639 355.704ZM441.865 348.265C437.541 343.336 432.43 339.203 426.78 335.865L425.763 337.587C431.245 340.826 436.188 344.826 440.361 349.584L441.865 348.265ZM426.782 335.866C420.341 332.041 413.352 329.369 405.999 327.911L405.61 329.873C412.741 331.286 419.516 333.877 425.761 337.586L426.782 335.866ZM405.805 327.892C405.378 327.892 405.011 328.091 404.776 328.396C404.563 328.674 404.491 328.993 404.491 329.259C404.491 329.739 404.783 330.534 405.664 330.66L405.946 328.68C406.145 328.708 406.302 328.824 406.392 328.954C406.47 329.067 406.491 329.177 406.491 329.259C406.491 329.337 406.471 329.473 406.362 329.614C406.233 329.784 406.022 329.892 405.805 329.892L405.805 327.892Z" fill="#AABCC5" mask="url(#path-11-inside-5_11522_4)"/>
<mask id="path-13-inside-6_11522_4" fill="white">
<path d="M437.104 345.337C440.036 341.749 439.976 336.547 436.864 333.018C436.565 332.66 436.026 333.138 436.326 333.497C439.198 336.726 439.258 341.629 436.505 344.918C436.206 345.277 436.804 345.696 437.104 345.337Z"/>
</mask>
<path d="M437.104 345.337C440.036 341.749 439.976 336.547 436.864 333.018C436.565 332.66 436.026 333.138 436.326 333.497C439.198 336.726 439.258 341.629 436.505 344.918C436.206 345.277 436.804 345.696 437.104 345.337Z" fill="white"/>
<path d="M437.104 345.337L437.872 345.977L437.878 345.97L437.104 345.337ZM436.864 333.018L436.096 333.659L436.105 333.67L436.114 333.68L436.864 333.018ZM436.326 333.497L435.558 334.137L435.568 334.15L435.578 334.161L436.326 333.497ZM436.505 344.918L435.738 344.276L435.737 344.278L436.505 344.918ZM437.878 345.97C441.118 342.005 441.052 336.255 437.614 332.357L436.114 333.68C438.9 336.839 438.954 341.493 436.329 344.704L437.878 345.97ZM437.632 332.378C437.377 332.072 437.011 331.891 436.612 331.891C436.242 331.891 435.927 332.045 435.706 332.241C435.485 332.437 435.303 332.725 435.252 333.076C435.197 333.451 435.303 333.832 435.558 334.137L437.094 332.856C437.198 332.982 437.259 333.169 437.231 333.365C437.206 333.536 437.121 333.659 437.035 333.736C436.949 333.813 436.806 333.891 436.612 333.891C436.388 333.891 436.202 333.785 436.096 333.659L437.632 332.378ZM435.578 334.161C438.121 337.02 438.173 341.367 435.738 344.276L437.272 345.56C440.343 341.892 440.275 336.432 437.073 332.832L435.578 334.161ZM435.737 344.278C435.479 344.588 435.363 344.994 435.454 345.403C435.537 345.776 435.769 346.05 436.007 346.216C436.47 346.54 437.308 346.653 437.872 345.977L436.336 344.696C436.442 344.569 436.607 344.486 436.782 344.475C436.936 344.466 437.062 344.514 437.153 344.577C437.242 344.639 437.361 344.763 437.406 344.968C437.46 345.209 437.382 345.428 437.273 345.559L435.737 344.278Z" fill="#AABCC5" mask="url(#path-13-inside-6_11522_4)"/>
<mask id="path-15-inside-7_11522_4" fill="white">
<path d="M446.32 362.499C441.712 362.978 437.163 361.722 433.453 359.031C433.094 358.732 432.675 359.33 433.034 359.629C436.864 362.499 441.712 363.755 446.439 363.217C446.858 363.157 446.738 362.439 446.32 362.499Z"/>
</mask>
<path d="M446.32 362.499C441.712 362.978 437.163 361.722 433.453 359.031C433.094 358.732 432.675 359.33 433.034 359.629C436.864 362.499 441.712 363.755 446.439 363.217C446.858 363.157 446.738 362.439 446.32 362.499Z" fill="white"/>
<path d="M446.32 362.499L446.423 363.494L446.442 363.492L446.461 363.489L446.32 362.499ZM433.453 359.031L432.813 359.799L432.839 359.821L432.866 359.84L433.453 359.031ZM433.034 359.629L432.394 360.397L432.414 360.414L432.434 360.429L433.034 359.629ZM446.439 363.217L446.552 364.21L446.566 364.209L446.581 364.207L446.439 363.217ZM446.216 361.504C441.857 361.957 437.554 360.77 434.04 358.221L432.866 359.84C436.772 362.674 441.566 363.998 446.423 363.494L446.216 361.504ZM434.093 358.262C433.783 358.004 433.377 357.889 432.969 357.98C432.595 358.063 432.322 358.294 432.155 358.532C431.831 358.995 431.718 359.834 432.394 360.397L433.674 358.86C433.801 358.966 433.885 359.131 433.896 359.307C433.905 359.461 433.857 359.588 433.793 359.679C433.731 359.768 433.607 359.887 433.402 359.932C433.162 359.986 432.944 359.908 432.813 359.799L434.093 358.262ZM432.434 360.429C436.475 363.457 441.579 364.776 446.552 364.21L446.326 362.223C441.844 362.733 437.253 361.541 433.634 358.829L432.434 360.429ZM446.581 364.207C447.006 364.146 447.344 363.895 447.532 363.553C447.702 363.244 447.724 362.914 447.68 362.649C447.635 362.382 447.508 362.084 447.259 361.849C446.987 361.593 446.601 361.449 446.178 361.509L446.461 363.489C446.248 363.52 446.034 363.442 445.889 363.306C445.767 363.191 445.722 363.065 445.707 362.978C445.693 362.891 445.692 362.748 445.78 362.589C445.886 362.397 446.082 362.258 446.298 362.227L446.581 364.207Z" fill="#AABCC5" mask="url(#path-15-inside-7_11522_4)"/>
<mask id="path-17-inside-8_11522_4" fill="white">
<path d="M419.868 333.975C419.031 335.59 417.415 336.666 415.619 336.846C415.141 336.905 415.32 337.563 415.739 337.563C417.714 337.324 419.509 336.188 420.407 334.394C420.527 334.214 420.467 334.035 420.347 333.915C420.168 333.796 419.988 333.856 419.868 333.975Z"/>
</mask>
<path d="M419.868 333.975C419.031 335.59 417.415 336.666 415.619 336.846C415.141 336.905 415.32 337.563 415.739 337.563C417.714 337.324 419.509 336.188 420.407 334.394C420.527 334.214 420.467 334.035 420.347 333.915C420.168 333.796 419.988 333.856 419.868 333.975Z" fill="white"/>
<path d="M419.868 333.975L419.161 333.268L419.052 333.377L418.981 333.515L419.868 333.975ZM415.619 336.846L415.52 335.85L415.508 335.852L415.495 335.853L415.619 336.846ZM415.739 337.563V338.563H415.799L415.859 338.556L415.739 337.563ZM420.407 334.394L419.575 333.839L419.541 333.891L419.513 333.946L420.407 334.394ZM420.347 333.915L421.054 333.208L420.984 333.138L420.902 333.083L420.347 333.915ZM418.981 333.515C418.301 334.825 416.984 335.704 415.52 335.85L415.719 337.841C417.845 337.628 419.76 336.355 420.756 334.436L418.981 333.515ZM415.495 335.853C415.128 335.899 414.759 336.087 414.53 336.452C414.317 336.791 414.304 337.159 414.365 337.439C414.479 337.96 414.954 338.563 415.739 338.563V336.563C416.105 336.563 416.281 336.838 416.32 337.014C416.343 337.123 416.349 337.315 416.224 337.514C416.083 337.739 415.871 337.822 415.743 337.838L415.495 335.853ZM415.859 338.556C418.127 338.281 420.236 336.97 421.301 334.841L419.513 333.946C418.782 335.406 417.301 336.367 415.619 336.57L415.859 338.556ZM421.239 334.949C421.438 334.65 421.513 334.298 421.451 333.953C421.392 333.63 421.226 333.38 421.054 333.208L419.64 334.623C419.588 334.571 419.512 334.47 419.483 334.311C419.45 334.13 419.496 333.958 419.575 333.839L421.239 334.949ZM420.902 333.083C420.603 332.884 420.251 332.809 419.907 332.872C419.584 332.93 419.333 333.096 419.161 333.268L420.575 334.683C420.523 334.735 420.422 334.811 420.264 334.84C420.084 334.872 419.912 334.827 419.793 334.748L420.902 333.083Z" fill="#AABCC5" mask="url(#path-17-inside-8_11522_4)"/>
<path d="M363.495 57.4067L50.4488 0.0598059C49.7905 -0.0597913 49.1323 -0.0597913 48.5338 0.0598059C47.9354 0.179403 47.3968 0.418597 46.9779 0.777389C46.4991 1.13618 46.14 1.61457 45.9007 2.09296C45.6613 2.63115 45.4818 3.28893 45.4818 3.88692V284.103C45.4818 284.701 45.6014 285.359 45.9007 285.897C46.14 286.435 46.4991 286.854 46.9779 287.213C47.4566 287.571 47.9952 287.811 48.5338 287.93C49.1921 288.05 49.8504 288.05 50.4488 287.93L363.495 230.823C363.734 230.763 363.974 230.643 364.213 230.464C364.452 230.284 364.632 230.045 364.752 229.746C364.931 229.447 365.051 229.088 365.111 228.789C365.23 228.431 365.23 228.012 365.23 227.653V60.576C365.23 60.2172 365.171 59.7986 365.111 59.4398C365.051 59.081 364.871 58.782 364.752 58.483C364.632 58.1841 364.393 57.9449 364.213 57.7655C364.034 57.5861 363.794 57.4665 363.495 57.4067Z" fill="#AABCC5"/>
<path d="M52.0653 1.1775L52.0783 1.16773L52.0906 1.15714C52.4324 0.864421 52.8877 0.656354 53.4193 0.550111C53.9502 0.444022 54.5445 0.442333 55.1467 0.55169C55.1468 0.551711 55.1469 0.551732 55.147 0.551753L368.184 57.897C368.186 57.8972 368.187 57.8974 368.188 57.8977C368.408 57.9423 368.551 58.023 368.647 58.1191C368.838 58.31 369 58.4803 369.075 58.6689C369.132 58.8118 369.236 59.0295 369.282 59.1361C369.342 59.2771 369.385 59.3996 369.405 59.5221C369.465 59.8792 369.518 60.2622 369.518 60.576V227.653C369.518 228.03 369.513 228.363 369.424 228.631L369.414 228.661L369.408 228.691C369.357 228.948 369.254 229.25 369.111 229.489L369.09 229.523L369.075 229.56C368.987 229.781 368.861 229.944 368.701 230.064C368.509 230.207 368.334 230.292 368.175 230.334L55.1466 287.438L55.1384 287.44C54.6104 287.546 54.0197 287.548 53.4208 287.44C52.953 287.335 52.4832 287.126 52.0653 286.813C51.6441 286.497 51.3447 286.143 51.145 285.694L51.136 285.674L51.1252 285.654C50.8789 285.211 50.7693 284.644 50.7693 284.103V3.88692C50.7693 3.38161 50.923 2.79876 51.1404 2.30662C51.3516 1.88794 51.6627 1.47919 52.0653 1.1775Z" fill="white" stroke="#AABCC5"/>
<path d="M368.282 57.4067L55.2364 0.0598059C54.5781 -0.0597913 53.9198 -0.0597913 53.3214 0.0598059C52.7229 0.179403 52.1843 0.418597 51.7654 0.777389C51.2866 1.13618 50.9276 1.61457 50.6882 2.09296C50.4488 2.63115 50.2693 3.28893 50.2693 3.88692V284.103C50.2693 284.701 50.389 285.359 50.6882 285.897C50.9276 286.435 51.2866 286.854 51.7654 287.213C52.2442 287.571 52.7828 287.811 53.3214 287.93C53.9796 288.05 54.6379 288.05 55.2364 287.93L368.282 230.823C368.522 230.763 368.761 230.643 369.001 230.464C369.24 230.284 369.419 230.045 369.539 229.746C369.719 229.447 369.838 229.088 369.898 228.789C370.018 228.431 370.018 228.012 370.018 227.653V60.576C370.018 60.2172 369.958 59.7986 369.898 59.4398C369.838 59.081 369.659 58.782 369.539 58.483C369.419 58.1841 369.18 57.9449 369.001 57.7655C368.821 57.5861 368.582 57.4665 368.282 57.4067ZM369.479 227.713C369.479 227.952 369.42 228.251 369.36 228.49C369.3 228.73 369.24 228.909 369.12 229.148C369.001 229.328 368.881 229.507 368.761 229.627C368.642 229.746 368.462 229.806 368.282 229.866L55.2364 286.495C54.8175 286.555 54.3985 286.555 53.9796 286.495C53.6206 286.435 53.2615 286.256 52.9024 286.017C52.6032 285.778 52.3638 285.479 52.1843 285.12C52.0048 284.761 51.9449 284.342 51.9449 283.924V4.24571C51.9449 3.82712 52.0048 3.40853 52.1843 3.04974C52.3638 2.69094 52.6032 2.39195 52.9024 2.15276C53.2615 1.97336 53.6206 1.79397 53.9796 1.67437C54.3985 1.55477 54.8175 1.55477 55.2364 1.67437L368.282 58.3634C368.462 58.4232 368.642 58.483 368.761 58.6026C368.941 58.7222 369.06 58.9016 369.12 59.081C369.24 59.2604 369.3 59.4996 369.36 59.7388C369.42 59.978 369.479 60.2172 369.479 60.5162V227.713Z" fill="#AABCC5"/>
<path d="M0 87.4854C0 85.5718 0.418911 83.6582 1.19689 81.9241C1.91502 80.3095 3.05206 78.8744 4.42849 77.798C5.80491 76.6618 7.42071 75.8844 9.15619 75.4658C11.0114 74.9874 12.9862 74.9276 14.8414 75.2864C16.8163 75.6452 18.7313 76.3628 20.4668 77.3794C22.2023 78.396 23.6984 79.7115 25.015 81.2065C26.2717 82.7015 27.289 84.3758 28.067 86.2296C28.7852 88.0235 29.1442 89.9969 29.1442 91.9104C29.1442 93.7642 28.7852 95.5582 28.067 97.2923C27.3489 98.8471 26.3315 100.282 25.015 101.359C23.6984 102.495 22.1424 103.332 20.4668 103.81C18.6116 104.349 16.7564 104.468 14.8414 104.169C12.8665 103.87 10.8917 103.272 9.15619 102.256C7.36086 101.299 5.80491 99.9833 4.42849 98.4883C3.05206 96.9933 1.97487 95.2592 1.19689 93.3456C0.418911 91.4919 0 89.5185 0 87.4854Z" fill="#AABCC5"/>
<path d="M0 145.49C0 143.576 0.418911 141.663 1.19689 139.929C1.91502 138.314 3.05206 136.879 4.42849 135.803C5.80491 134.666 7.42071 133.889 9.15619 133.47C11.0114 132.992 12.9862 132.932 14.8414 133.291C16.8163 133.65 18.7313 134.367 20.4668 135.384C22.2023 136.401 23.6984 137.716 25.015 139.211C26.2717 140.706 27.289 142.38 28.067 144.234C28.7852 146.028 29.1442 148.002 29.1442 149.915C29.1442 151.769 28.7852 153.563 28.067 155.297C27.3489 156.852 26.3315 158.287 25.015 159.363C23.6984 160.499 22.1424 161.337 20.4668 161.815C18.6116 162.353 16.7564 162.473 14.8414 162.174C12.8665 161.875 10.8917 161.277 9.15619 160.26C7.36086 159.303 5.80491 157.988 4.42849 156.493C3.05206 154.998 1.97487 153.264 1.19689 151.35C0.418911 149.497 0 147.523 0 145.49Z" fill="#AABCC5"/>
<path d="M0 203.495C0 201.581 0.418911 199.668 1.19689 197.933C1.91502 196.319 3.05206 194.884 4.42849 193.807C5.80491 192.671 7.42071 191.894 9.15619 191.475C11.0114 190.997 12.9862 190.937 14.8414 191.296C16.8163 191.655 18.7313 192.372 20.4668 193.389C22.2023 194.405 23.6984 195.721 25.015 197.216C26.2717 198.711 27.289 200.385 28.067 202.239C28.7852 204.033 29.1442 206.006 29.1442 207.92C29.1442 209.773 28.7852 211.567 28.067 213.302C27.3489 214.856 26.3315 216.292 25.015 217.368C23.6984 218.504 22.1424 219.341 20.4668 219.82C18.6116 220.358 16.7564 220.477 14.8414 220.178C12.8665 219.879 10.8917 219.281 9.15619 218.265C7.36086 217.308 5.80491 215.993 4.42849 214.498C3.05206 213.003 1.97487 211.268 1.19689 209.355C0.418911 207.501 0 205.528 0 203.495Z" fill="#AABCC5"/>
<path d="M3.59064 87.4854C3.59064 85.5718 4.00955 83.6582 4.78753 81.9241C5.50566 80.3095 6.6427 78.8744 8.01912 77.798C9.39554 76.6618 11.0113 75.8844 12.7468 75.4658C14.602 74.9874 16.5769 74.9276 18.432 75.2864C20.4069 75.6452 22.3219 76.3628 24.0574 77.3794C25.7929 78.396 27.289 79.7115 28.6056 81.2065C29.8623 82.7015 30.8797 84.3758 31.6577 86.2296C32.3758 88.0235 32.7349 89.9969 32.7349 91.9104C32.7349 93.7642 32.3758 95.5582 31.6577 97.2923C30.9395 98.8471 29.9222 100.282 28.6056 101.359C27.289 102.495 25.7331 103.332 24.0574 103.81C22.2022 104.349 20.3471 104.468 18.432 104.169C16.4572 103.87 14.4823 103.272 12.7468 102.256C10.9515 101.299 9.39554 99.9833 8.01912 98.4883C6.6427 96.9933 5.5655 95.2592 4.78753 93.3456C4.00955 91.4919 3.59064 89.5185 3.59064 87.4854Z" fill="#17A550"/>
<path d="M3.59064 145.071C3.59064 143.158 4.00955 141.185 4.78753 139.45C5.5655 137.776 6.6427 136.281 8.01912 135.085C9.39554 133.889 11.0113 132.932 12.7468 132.394C14.602 131.796 16.517 131.617 18.432 131.796C20.4069 131.976 22.3219 132.574 24.0574 133.47C25.7331 134.367 27.289 135.563 28.6056 136.939C29.8623 138.314 30.9395 139.989 31.6577 141.723C32.3758 143.517 32.7349 145.43 32.7349 147.344C32.7349 149.198 32.3758 151.051 31.6577 152.785C30.2214 156.074 27.5284 158.646 24.1173 159.901C22.3219 160.559 20.4069 160.798 18.4919 160.679C16.517 160.559 14.602 160.081 12.8067 159.184C9.21601 157.45 6.40332 154.52 4.84737 150.872C4.00955 149.078 3.59064 147.045 3.59064 145.071Z" fill="#17A550"/>
<path d="M3.59064 202.657C3.59064 198.771 5.14659 195.003 8.01912 192.312C13.824 186.751 23.0999 186.93 28.6654 192.791C29.9222 194.106 30.8797 195.601 31.5978 197.276C34.6499 204.631 31.1191 213.062 23.7582 216.112C22.0826 216.83 20.2274 217.189 18.432 217.189C12.5075 217.248 7.1813 213.84 4.78753 208.398C4.00955 206.604 3.59064 204.631 3.59064 202.657Z" fill="#17A550"/>
<path d="M12.4691 87.9L12.5101 87.9136L12.5527 87.92L16.9213 88.5778L17.4958 88.6643V88.0834V83.7779C17.4958 83.6943 17.5243 83.5941 17.5898 83.3979C17.6071 83.346 17.6395 83.3033 17.7681 83.1748C17.7881 83.1548 17.8411 83.1263 18.0515 83.0563C18.1284 83.0306 18.1971 83.0306 18.2741 83.0563L18.5434 83.146L18.745 83.2131C18.794 83.2484 18.8412 83.2859 18.8978 83.3312L18.9025 83.335C18.9638 83.384 19.0368 83.4424 19.123 83.5026C19.1854 83.5735 19.2459 83.6715 19.2743 83.7567C19.3341 83.9359 19.3683 84.0465 19.3683 84.1965V88.4422V88.8707L19.7918 88.9363L23.9992 89.5876L24.2286 89.664L24.4607 89.7413C24.6694 89.8541 24.831 90.0391 24.9712 90.3097C25.0284 90.4831 25.0535 90.5763 25.0535 90.6547C25.0535 90.7383 25.025 90.8385 24.9596 91.0347C24.9422 91.0866 24.9098 91.1293 24.7812 91.2578C24.7771 91.2619 24.7576 91.2783 24.7017 91.3062C24.6751 91.3195 24.6467 91.3324 24.6108 91.3484L24.603 91.3519C24.5827 91.361 24.5582 91.3719 24.533 91.3837C24.4658 91.4016 24.4038 91.3992 24.3351 91.3763L24.2952 91.363L24.2536 91.3566L20.0047 90.6988L19.4282 90.6095V91.1929V95.4386C19.4282 95.5222 19.3996 95.6223 19.3342 95.8186C19.3169 95.8705 19.2845 95.9132 19.1558 96.0417C19.1359 96.0616 19.0828 96.0901 18.8725 96.1602C18.7825 96.1902 18.6843 96.1943 18.4966 96.1944C18.494 96.1937 18.4715 96.1891 18.4148 96.1655C18.3899 96.1551 18.3688 96.1457 18.3429 96.1342C18.3271 96.1272 18.3095 96.1194 18.2882 96.1101C18.258 96.0969 18.2227 96.0818 18.1843 96.0669C18.1334 96.0306 18.0848 95.992 18.0261 95.945L18.0215 95.9413C17.9602 95.8923 17.8871 95.8339 17.801 95.7737C17.7386 95.7027 17.678 95.6047 17.6496 95.5196C17.5899 95.3404 17.5556 95.2297 17.5556 95.0798V90.8939V90.4635L17.1301 90.3995L12.8024 89.7479C12.7455 89.7297 12.6832 89.711 12.6272 89.6942C12.5963 89.6849 12.5673 89.6762 12.5422 89.6685C12.466 89.6451 12.4183 89.6285 12.3918 89.618C12.2164 89.5008 12.0955 89.4166 12.0231 89.3442C11.9517 89.273 11.8772 89.1587 11.8447 89.0613C11.7849 88.8821 11.7507 88.7715 11.7507 88.6216C11.7507 88.538 11.7793 88.4378 11.8447 88.2416C11.862 88.1897 11.8944 88.147 12.0231 88.0185C12.043 87.9985 12.0961 87.97 12.3064 87.9L12.3401 87.8887L12.3555 87.881C12.358 87.8809 12.3613 87.8807 12.3653 87.8807C12.3888 87.8807 12.4253 87.8853 12.4691 87.9Z" fill="white" stroke="#AABCC5"/>
<path d="M18.0229 147.183L21.7628 140.993L26.9455 150.369L16.5372 149.597L17.8402 147.487L17.8402 147.487L17.8434 147.482L18.0222 147.184L18.0229 147.183Z" fill="white" stroke="#AABCC5"/>
<path d="M18.4774 149.761L9.73583 149.123L14.1051 143.179H14.1053H14.1055H14.1057H14.1059H14.1061H14.1062H14.1064H14.1066H14.1068H14.107H14.1072H14.1074H14.1076H14.1078H14.108H14.1082H14.1084H14.1086H14.1088H14.109H14.1092H14.1094H14.1096H14.1097H14.1099H14.1101H14.1103H14.1105H14.1107H14.1109H14.1111H14.1113H14.1114H14.1116H14.1118H14.112H14.1122H14.1124H14.1126H14.1127H14.1129H14.1131H14.1133H14.1135H14.1137H14.1138H14.114H14.1142H14.1144H14.1146H14.1148H14.1149H14.1151H14.1153H14.1155H14.1157H14.1158H14.116H14.1162H14.1164H14.1166H14.1167H14.1169H14.1171H14.1173H14.1175H14.1176H14.1178H14.118H14.1182H14.1183H14.1185H14.1187H14.1189H14.1191H14.1192H14.1194H14.1196H14.1198H14.1199H14.1201H14.1203H14.1205H14.1206H14.1208H14.121H14.1212H14.1213H14.1215H14.1217H14.1219H14.122H14.1222H14.1224H14.1226H14.1227H14.1229H14.1231H14.1233H14.1234H14.1236H14.1238H14.124H14.1241H14.1243H14.1245H14.1247H14.1249H14.125H14.1252H14.1254H14.1256H14.1257H14.1259H14.1261H14.1263H14.1264H14.1266H14.1268H14.127H14.1271H14.1273H14.1275H14.1277H14.1278H14.128H14.1282H14.1284H14.1286H14.1287H14.1289H14.1291H14.1293H14.1294H14.1296H14.1298H14.13H14.1302H14.1303H14.1305H14.1307H14.1309H14.1311H14.1312H14.1314H14.1316H14.1318H14.132H14.1321H14.1323H14.1325H14.1327H14.1329H14.1331H14.1332H14.1334H14.1336H14.1338H14.134H14.1342H14.1344H14.1345H14.1347H14.1349H14.1351H14.1353H14.1355H14.1357H14.1359H14.136H14.1362H14.1364H14.1366H14.1368H14.137H14.1372H14.1374H14.1376H14.1378H14.1379H14.1381H14.1383H14.1385H14.1387H14.1389H14.1391H14.1393H14.1395H14.1397H14.1399H14.1401H14.1403H14.1405H14.1407H14.1409H14.1411H14.1413H14.1415H14.1417H14.1419H14.1421H14.1423H14.1425H14.1427H14.1429H14.1431H14.1433H14.1435H14.1437H14.144H14.1442H14.1444H14.1446H14.1448H14.145H14.1452H14.1454H14.1456H14.1459H14.1461H14.1463H14.1465H14.1467H14.1469H14.1471H14.1474H14.1476H14.1478H14.148H14.1482H14.1485H14.1487H14.1489H14.1491H14.1494H14.1496H14.1498H14.15H14.1503H14.1505H14.1507H14.151H14.1512H14.1514H14.1516H14.1519H14.1521H14.1523H14.1526H14.1528H14.1531H14.1533H14.1535H14.1538H14.154H14.1542H14.1545H14.1547H14.155H14.1552H14.1555H14.1557L14.1588 143.183L14.213 143.237L16.8614 147.236L16.9676 147.448L16.9805 147.474L16.9963 147.498L18.4774 149.761Z" fill="white" stroke="#AABCC5"/>
<path d="M18.0667 140.289L18.08 140.343L18.1046 140.392C18.1641 140.511 18.1714 140.634 18.1714 140.886C18.1714 141.028 18.1392 141.184 18.0968 141.324L17.9563 141.535L17.8077 141.758C17.7454 141.813 17.6881 141.84 17.5648 141.899C17.5248 141.918 17.4777 141.94 17.4212 141.968C17.1944 142.023 17.0884 142.038 16.9973 142.015L16.9376 142H16.8761C16.723 142 16.5597 141.962 16.3814 141.873C16.178 141.772 16.0459 141.681 15.913 141.548C15.78 141.416 15.6895 141.284 15.5878 141.08C15.5282 140.961 15.5209 140.838 15.5209 140.587C15.5209 140.444 15.5532 140.288 15.5955 140.148C15.6989 139.994 15.7881 139.869 15.913 139.744C15.9898 139.667 16.0439 139.642 16.1874 139.573C16.2266 139.555 16.2724 139.533 16.3271 139.506C16.4833 139.474 16.6507 139.472 16.8761 139.472C17.0292 139.472 17.1925 139.51 17.3708 139.599C17.5742 139.7 17.7063 139.791 17.8393 139.924C17.9737 140.058 18.0346 140.161 18.0667 140.289Z" fill="white" stroke="#AABCC5"/>
<path d="M147.098 179.874L266.607 66.5558L267.145 67.4528L147.816 180.831L147.098 179.874Z" fill="#AABCC5"/>
<path d="M147.098 51.4866L147.876 50.5896L267.086 174.253L266.547 175.09L147.098 51.4866Z" fill="#AABCC5"/>
<path d="M265.35 64.9413L149.192 49.0348C148.654 48.9751 148.115 48.975 147.576 49.1544C147.098 49.3338 146.619 49.573 146.26 49.9318C145.901 50.2906 145.601 50.769 145.362 51.2474C145.123 51.7856 145.003 52.3836 145.063 52.9816V177.901C145.063 178.499 145.183 179.097 145.362 179.635C145.542 180.173 145.841 180.652 146.26 181.01C146.619 181.369 147.098 181.728 147.576 181.907C148.055 182.087 148.654 182.206 149.192 182.147L265.35 175.808C265.769 175.808 266.128 175.688 266.427 175.449C266.786 175.21 267.086 174.911 267.325 174.612C267.564 174.253 267.804 173.835 267.923 173.416C268.043 172.938 268.163 172.459 268.163 171.981V69.1272C268.163 68.6488 268.103 68.1106 267.923 67.6322C267.804 67.1538 267.564 66.7352 267.325 66.3764C267.086 66.0177 266.786 65.7187 266.427 65.4795C266.128 65.1805 265.769 65.0011 265.35 64.9413ZM149.192 180.951C148.773 180.951 148.414 180.891 148.055 180.771C147.696 180.652 147.397 180.412 147.098 180.113C146.798 179.814 146.619 179.515 146.439 179.097C146.26 178.678 146.2 178.26 146.2 177.841V53.1012C146.2 52.6826 146.26 52.264 146.439 51.8454C146.559 51.4866 146.798 51.1876 147.098 50.8886C147.337 50.6494 147.696 50.4102 148.055 50.3504C148.414 50.2308 148.833 50.171 149.192 50.2308L265.35 65.9579C265.649 66.0177 265.889 66.1373 266.128 66.2568C266.367 66.4362 266.607 66.6754 266.786 66.9146C266.966 67.2136 267.145 67.5126 267.205 67.8116C267.325 68.1704 267.385 68.5292 267.385 68.888V171.921C267.385 172.28 267.325 172.639 267.205 172.997C267.086 173.296 266.966 173.595 266.786 173.894C266.607 174.134 266.367 174.313 266.128 174.492C265.889 174.612 265.589 174.732 265.35 174.732L149.192 180.951Z" fill="#AABCC5"/>
<path d="M145.362 195.422C145.063 195.482 144.764 195.541 144.524 195.781C144.225 195.96 143.986 196.259 143.806 196.558C143.627 196.857 143.447 197.216 143.327 197.634C143.208 198.053 143.148 198.472 143.148 198.89C143.148 199.309 143.208 199.668 143.327 200.086C143.447 200.445 143.567 200.744 143.806 201.043C143.986 201.282 144.225 201.521 144.464 201.641C144.704 201.76 145.003 201.82 145.302 201.82L348.653 185.017C348.833 185.017 348.953 184.957 349.072 184.837C349.192 184.718 349.312 184.538 349.431 184.359C349.551 184.12 349.611 183.881 349.671 183.642C349.731 183.343 349.791 183.044 349.791 182.745C349.791 182.446 349.791 182.147 349.731 181.907C349.671 181.668 349.611 181.429 349.491 181.19C349.431 181.01 349.312 180.831 349.132 180.711C349.013 180.592 348.833 180.532 348.713 180.532H348.653L145.362 195.422Z" fill="#AABCC5"/>
<path d="M145.362 214.557C145.063 214.617 144.764 214.737 144.524 214.916C144.225 215.155 143.986 215.395 143.806 215.694C143.627 216.052 143.447 216.411 143.327 216.77C143.208 217.189 143.148 217.607 143.148 218.026C143.148 218.444 143.208 218.803 143.327 219.222C143.447 219.58 143.567 219.879 143.806 220.178C143.986 220.418 144.225 220.657 144.464 220.776C144.704 220.896 145.003 220.956 145.302 220.956L348.653 198.531C348.833 198.531 348.953 198.412 349.072 198.352C349.192 198.232 349.312 198.053 349.431 197.874C349.551 197.634 349.611 197.395 349.671 197.156C349.731 196.857 349.791 196.558 349.791 196.259C349.791 195.96 349.791 195.661 349.731 195.422C349.671 195.183 349.611 194.943 349.491 194.704C349.431 194.525 349.312 194.345 349.132 194.226C349.013 194.106 348.833 194.046 348.713 194.106H348.653L145.362 214.557Z" fill="#AABCC5"/>
<path d="M145.362 233.394C145.063 233.454 144.764 233.573 144.524 233.753C144.225 233.992 143.986 234.231 143.806 234.53C143.627 234.889 143.447 235.248 143.327 235.607C143.208 236.025 143.148 236.444 143.148 236.862C143.148 237.281 143.208 237.64 143.327 238.058C143.447 238.417 143.567 238.716 143.806 238.955C143.986 239.194 144.225 239.374 144.464 239.553C144.704 239.673 145.003 239.733 145.302 239.673L348.653 211.747C348.833 211.747 348.953 211.627 349.072 211.508C349.192 211.388 349.312 211.209 349.431 210.969C349.551 210.73 349.611 210.491 349.671 210.252C349.731 209.953 349.791 209.654 349.791 209.355C349.791 209.056 349.791 208.757 349.731 208.518C349.671 208.279 349.611 208.039 349.491 207.86C349.431 207.681 349.312 207.561 349.132 207.441C349.013 207.322 348.833 207.322 348.713 207.322H348.653L145.362 233.394Z" fill="#AABCC5"/>
<path d="M24.2319 197.118V197.118H24.237L24.2413 197.118C24.2743 197.118 24.3456 197.118 24.4322 197.101C24.4624 197.095 24.4922 197.087 24.522 197.078C24.9792 197.209 25.3081 197.705 25.2415 198.255C25.1078 198.742 24.6525 199.108 24.1173 199.108H20.766C20.0115 199.108 19.4282 199.69 19.4282 200.445V207.322C19.4282 207.448 19.4274 207.534 19.4176 207.607C19.4084 207.676 19.395 207.698 19.3926 207.702L19.3701 207.736L19.3534 207.773C19.1516 208.216 18.7284 208.453 18.2519 208.389C17.9471 208.283 17.7102 208.147 17.5657 207.966C17.3984 207.757 17.3163 207.509 17.3163 207.262V200.445C17.3163 200.443 17.3163 200.441 17.3163 200.438C17.3164 200.37 17.3168 200.17 17.22 199.957C17.0161 199.388 16.5151 199.109 15.9832 199.108L12.5161 199.048L12.5161 199.048H12.5075C12.228 199.048 12.0566 199.006 11.8833 198.875C11.7547 198.742 11.6633 198.608 11.5493 198.437C11.5491 198.436 11.549 198.436 11.5488 198.435C11.5431 198.415 11.5332 198.379 11.5227 198.347C11.5117 198.313 11.4971 198.272 11.4771 198.227C11.4325 198.087 11.4162 197.976 11.4334 197.89C11.4908 197.718 11.5324 197.605 11.6069 197.493L11.644 197.438L11.6627 197.382C11.666 197.377 11.6764 197.363 11.7014 197.338C11.7235 197.316 11.7487 197.293 11.7845 197.261C11.7864 197.259 11.7883 197.258 11.7903 197.256C11.8215 197.228 11.8639 197.19 11.9034 197.151C11.9228 197.132 11.9732 197.104 12.1677 197.039C12.3333 196.999 12.4568 196.998 12.6246 196.998L24.2319 197.118Z" fill="white" stroke="#AABCC5"/>
<path d="M24.237 206.327C24.799 206.327 25.2929 206.821 25.2929 207.382C25.2929 207.942 24.799 208.436 24.237 208.436C23.6749 208.436 23.181 207.942 23.181 207.382C23.181 207.287 23.2176 207.118 23.2702 206.956C23.4338 206.561 23.7821 206.327 24.237 206.327Z" fill="white" stroke="#AABCC5"/>
<path d="M296.29 115.172C296.23 115.591 296.17 116.009 296.05 116.428L320.227 145.37L329.264 143.816L333.393 157.151L317.654 161.456C315.021 162.174 312.268 161.097 310.832 158.765L288.33 122.228C283.902 122.228 280.311 118.7 280.311 114.275C280.311 109.85 283.842 106.262 288.271 106.262C292.699 106.262 296.29 109.79 296.29 114.215C296.349 114.514 296.349 114.813 296.29 115.172Z" fill="#FFB6B6"/>
<path d="M321.305 143.696C321.843 142.859 322.681 142.261 323.698 142.141L340.694 139.45C345.721 137.896 351.047 140.646 352.603 145.669C354.159 150.633 351.406 155.955 346.439 157.569L330.94 165.104C329.264 165.941 327.169 165.224 326.332 163.549C326.272 163.37 326.212 163.25 326.152 163.071L320.946 146.566C320.646 145.61 320.766 144.593 321.305 143.696Z" fill="#536D7A"/>
<path d="M322.262 378.226H314.901L311.43 349.941H322.262V378.226Z" fill="#FFB6B6"/>
<path d="M324.117 385.342H300.479V385.043C300.479 379.96 304.608 375.834 309.695 375.834H324.117V385.342Z" fill="#1D2F38"/>
<path d="M398.863 378.226H391.502L388.031 349.941H398.863V378.226Z" fill="#FFB6B6"/>
<path d="M400.718 385.342H377.08V385.043C377.08 379.96 381.209 375.834 386.296 375.834H400.718V385.342Z" fill="#1D2F38"/>
<path d="M325.135 206.006L356.912 196.797C368.522 204.99 376.481 221.434 373.908 242.723C369.719 277.047 393.896 321.119 404.309 365.848L386.296 366.386L346.858 272.084L323.698 368.419L307.6 368.898L318.372 236.264L325.135 206.006Z" fill="#1D2F38"/>
<path d="M339.258 122.587C348.347 122.587 355.715 115.225 355.715 106.143C355.715 97.0604 348.347 89.6979 339.258 89.6979C330.169 89.6979 322.801 97.0604 322.801 106.143C322.801 115.225 330.169 122.587 339.258 122.587Z" fill="#FFB6B6"/>
<path d="M322.561 179.216C318.911 172.818 317.116 165.104 320.287 158.466C321.065 156.792 323.279 155.237 324.417 153.742L337.104 134.786L351.466 132.454C363.854 142.859 353.262 178.439 363.435 201.76L320.946 224.484C323.938 212.943 328.067 188.904 322.561 179.216Z" fill="#536D7A"/>
<path d="M322.741 99.5647C322.741 99.5647 323.878 97.5315 330.521 100.163C332.855 101.119 333.932 100.88 334.111 102.913C334.65 110.508 337.463 117.803 342.13 123.843L342.19 123.903L345.542 120.853L349.85 124.261L367.923 124.62C367.923 124.62 370.796 110.568 361.281 94.6014C351.765 78.6351 332.136 87.4255 332.136 87.4255C318.791 88.2029 322.741 99.5647 322.741 99.5647Z" fill="#1D2F38"/>
<path d="M280.73 78.5156L164.572 62.6091C164.034 62.5493 163.495 62.5493 162.956 62.7287C162.478 62.9081 161.999 63.1473 161.64 63.5061C161.281 63.8649 160.981 64.3433 160.742 64.8217C160.503 65.3599 160.383 65.9579 160.443 66.5558V191.475C160.443 192.073 160.563 192.671 160.742 193.209C160.922 193.747 161.221 194.226 161.64 194.585C161.999 194.943 162.478 195.302 162.956 195.482C163.435 195.661 164.034 195.781 164.572 195.721L280.73 189.322C281.149 189.322 281.508 189.203 281.807 188.964C282.166 188.724 282.466 188.425 282.705 188.126C282.944 187.768 283.184 187.349 283.303 186.93C283.423 186.452 283.543 185.974 283.543 185.495V82.6417C283.543 82.1633 283.483 81.6251 283.303 81.1467C283.184 80.6683 282.944 80.2497 282.705 79.8909C282.466 79.5321 282.166 79.2331 281.807 78.994C281.508 78.7548 281.149 78.5754 280.73 78.5156Z" fill="#17A550"/>
<path opacity="0.2" d="M280.73 78.5156L164.572 62.6091C164.034 62.5493 163.495 62.5493 162.956 62.7287C162.478 62.9081 161.999 63.1473 161.64 63.5061C161.281 63.8649 160.981 64.3433 160.742 64.8217C160.503 65.3599 160.383 65.9579 160.443 66.5558V191.475C160.443 192.073 160.563 192.671 160.742 193.209C160.922 193.747 161.221 194.226 161.64 194.585C161.999 194.943 162.478 195.302 162.956 195.482C163.435 195.661 164.034 195.781 164.572 195.721L280.73 189.322C281.149 189.322 281.508 189.203 281.807 188.964C282.166 188.724 282.466 188.425 282.705 188.126C282.944 187.768 283.184 187.349 283.303 186.93C283.423 186.452 283.543 185.974 283.543 185.495V82.6417C283.543 82.1633 283.483 81.6251 283.303 81.1467C283.184 80.6683 282.944 80.2497 282.705 79.8909C282.466 79.5321 282.166 79.2331 281.807 78.994C281.508 78.7548 281.149 78.5754 280.73 78.5156Z" fill="black"/>
<path d="M285.518 78.5156L169.36 62.6091C168.821 62.5493 168.282 62.5493 167.744 62.7287C167.265 62.9081 166.786 63.1473 166.427 63.5061C166.068 63.8649 165.769 64.3433 165.53 64.8217C165.29 65.3599 165.171 65.9579 165.23 66.5558V191.475C165.23 192.073 165.35 192.671 165.53 193.209C165.709 193.747 166.008 194.226 166.427 194.585C166.786 194.943 167.265 195.302 167.744 195.482C168.223 195.661 168.821 195.781 169.36 195.721L285.518 189.322C285.937 189.322 286.296 189.203 286.595 188.964C286.954 188.724 287.253 188.425 287.493 188.126C287.732 187.768 287.971 187.349 288.091 186.93C288.211 186.452 288.33 185.974 288.33 185.495V82.6417C288.33 82.1633 288.27 81.6251 288.091 81.1467C287.971 80.6683 287.732 80.2497 287.493 79.8909C287.253 79.5321 286.954 79.2331 286.595 78.994C286.296 78.7548 285.937 78.5754 285.518 78.5156Z" fill="#17A550"/>
<path d="M285.039 178.439C285.338 178.738 285.637 179.037 285.937 179.336L323.519 175.509L327.289 167.137L340.634 171.144L335.428 186.572C334.53 189.143 332.077 190.817 329.384 190.698L286.475 188.844C284.022 192.492 279.054 193.508 275.404 190.997C271.753 188.545 270.736 183.582 273.25 179.934C275.703 176.286 280.67 175.27 284.321 177.781C284.5 178.02 284.8 178.2 285.039 178.439Z" fill="#FFB6B6"/>
<path d="M322.741 173.715C322.322 172.818 322.322 171.742 322.741 170.845L329.982 155.297C331.478 150.274 336.744 147.404 341.831 148.899C346.858 150.394 349.731 155.656 348.235 160.679L345.781 177.721C345.542 179.575 343.806 180.891 341.891 180.652C341.712 180.652 341.532 180.592 341.412 180.532L324.835 175.629C323.938 175.33 323.1 174.612 322.741 173.715Z" fill="#536D7A"/>
<path d="M499.402 386H271.394C271.035 386 270.796 385.761 270.796 385.402C270.796 385.043 271.035 384.804 271.394 384.804H499.402C499.761 384.804 500 385.043 500 385.402C500 385.761 499.701 386 499.402 386Z" fill="#AABCC5"/>
</g>
<defs>
<clipPath id="clip0_11522_4">
<rect width="500" height="386" fill="white"/>
</clipPath>
</defs>
</svg>
